<svg width="22" height="19" viewBox="0 0 22 19" fill="none" xmlns="http://www.w3.org/2000/svg">
<path fill-rule="evenodd" clip-rule="evenodd" d="M12.3542 4.00518C13.1855 3.27782 13.2697 2.01429 12.5423 1.18302C11.815 0.351745 10.5514 0.26751 9.72018 0.994874L1.72871 7.98741C1.7234 7.992 1.71812 7.99662 1.71286 8.00128L0 9.50003L1.71291 10.9988C1.71814 11.0034 1.72338 11.008 1.72866 11.0126L9.72018 18.0052C10.5514 18.7325 11.815 18.6483 12.5423 17.817C13.2697 16.9858 13.1855 15.7222 12.3542 14.9949L8.36008 11.5H19.0372C20.1418 11.5 21.0372 10.6046 21.0372 9.50003C21.0372 8.39546 20.1418 7.50003 19.0372 7.50003H8.36008L12.3542 4.00518Z" fill="black"/>
</svg>
