<svg width="17" height="14" viewBox="0 0 17 14" fill="none" xmlns="http://www.w3.org/2000/svg">
<path fill-rule="evenodd" clip-rule="evenodd" d="M9.33962 2.52703C9.76874 2.17936 9.83477 1.54964 9.48711 1.12052C9.13944 0.691402 8.50972 0.625372 8.0806 0.97304L1.60732 6.21761C1.60315 6.22094 1.599 6.2243 1.59488 6.22769L0.641602 7.00002L1.59467 7.77219C1.59893 7.7757 1.60322 7.77917 1.60753 7.78261L8.0806 13.027C8.50972 13.3747 9.13944 13.3086 9.48711 12.8795C9.83477 12.4504 9.76874 11.8207 9.33962 11.473L5.05296 8.00003H15.1901C15.7424 8.00003 16.1901 7.55231 16.1901 7.00003C16.1901 6.44774 15.7424 6.00003 15.1901 6.00003H5.05296L9.33962 2.52703Z" fill="black"/>
</svg>
