<svg width="66" height="34" viewBox="0 0 66 34" fill="none" xmlns="http://www.w3.org/2000/svg">
<path d="M41.0464 12.4989C41.0466 12.4997 41.0469 12.5005 41.0471 12.5013L41.0475 12.503L41.0475 12.503C41.1204 12.763 41.1928 13.024 41.2653 13.2852C41.4104 13.8086 41.5559 14.3328 41.7055 14.8515L41.7056 14.8517C41.9017 15.5279 42.3116 16.0041 42.9563 16.2285L42.9572 16.2289C43.0519 16.2611 43.1473 16.2941 43.2431 16.3273C43.467 16.4047 43.6936 16.4831 43.9216 16.5558L43.922 16.5559C44.1887 16.6402 44.4566 16.7245 44.7244 16.8087C44.8837 16.8588 45.0429 16.9089 45.2018 16.9589C45.0826 16.9972 44.9633 17.0356 44.8439 17.074C44.294 17.251 43.7429 17.4283 43.1917 17.5951C42.3917 17.8336 41.8716 18.3755 41.6448 19.2439C41.4734 19.8909 41.2942 20.5337 41.1139 21.1808C41.0923 21.2583 41.0707 21.3358 41.0491 21.4134C40.9702 21.1342 40.8921 20.8544 40.8139 20.5743C40.6725 20.0682 40.531 19.5612 40.3844 19.0555L40.3843 19.0552C40.1937 18.4027 39.7996 17.9304 39.1727 17.7164C38.7073 17.5575 38.2386 17.4022 37.7726 17.2478C37.6641 17.2118 37.5558 17.1759 37.4477 17.14C37.2702 17.081 37.0908 17.0238 36.894 16.9618C37.1964 16.8609 37.5022 16.7612 37.8087 16.6612C38.2662 16.5121 38.7255 16.3624 39.1777 16.2071L41.0464 12.4989ZM41.0464 12.4989C40.9203 12.9692 40.7927 13.4379 40.6588 13.9102L41.0464 12.4989Z" fill="#FFD772" stroke="#131313" stroke-width="0.3"/>
<path d="M47.0535 9.58109C47.033 9.58992 47.0124 9.59882 46.9917 9.60772C47.0641 9.63576 47.1358 9.66395 47.2073 9.69199C47.4883 9.80233 47.7636 9.91042 48.0471 9.99869L48.0474 9.99877C48.3861 10.1049 48.6654 10.2879 48.8788 10.5589C49.0908 10.8282 49.2312 11.1761 49.3071 11.6032C49.3785 11.9919 49.4681 12.3748 49.5774 12.7603C49.6051 12.639 49.6331 12.5186 49.661 12.3985C49.7363 12.0746 49.8109 11.7535 49.8779 11.4281L49.878 11.4278C50.022 10.7361 50.3639 10.2745 50.9278 10.0685C51.3118 9.92632 51.6924 9.77754 52.0763 9.5935C52.0491 9.58165 52.0217 9.56978 51.9943 9.55788C51.7958 9.47885 51.5961 9.40128 51.3956 9.32345L51.3955 9.32339C51.1946 9.24538 50.9929 9.16709 50.7924 9.08723L50.7918 9.087C50.3399 8.90489 50.0613 8.52027 49.9263 7.9735L49.926 7.97249C49.8068 7.4751 49.6885 6.98129 49.5455 6.48371C49.4975 6.67377 49.4549 6.86012 49.4306 7.05587C49.3511 7.69927 49.1722 8.22342 48.8759 8.61577C48.5771 9.01145 48.1668 9.26249 47.6473 9.3703L47.6463 9.3705C47.5079 9.39823 47.3681 9.4489 47.2209 9.50976C47.1675 9.53186 47.1111 9.5562 47.0535 9.58109Z" fill="#FFD772" stroke="#131313" stroke-width="0.3"/>
<path d="M48.6635 18.3327L48.6634 18.3322C48.6049 18.0425 48.5234 17.7587 48.4212 17.4729C48.3791 17.622 48.3377 17.7702 48.2996 17.919C48.2097 18.2752 48.1362 18.5552 48.0561 18.7774C47.9754 19.0012 47.8845 19.1769 47.7542 19.3201C47.4968 19.6032 47.1091 19.7294 46.4729 19.9229C46.3059 19.9738 46.144 20.0255 45.9827 20.0892C46.0676 20.1173 46.1526 20.1461 46.2377 20.1757C46.3498 20.2117 46.4637 20.2475 46.5784 20.2836C46.7849 20.3485 46.9938 20.4142 47.199 20.4835L47.1991 20.4835C47.6408 20.6331 47.9389 20.9438 48.0691 21.4266C48.1885 21.8456 48.307 22.2609 48.4485 22.6792C48.5615 22.2802 48.6735 21.8825 48.7779 21.4849C48.9114 20.974 49.2173 20.6278 49.703 20.4774C49.9115 20.4107 50.1212 20.3441 50.3307 20.2775L50.3307 20.2775C50.5275 20.215 50.7241 20.1525 50.9197 20.09C50.9096 20.0866 50.8995 20.0831 50.8895 20.0796C50.5991 19.9792 50.3171 19.8818 50.0274 19.8126C49.654 19.7248 49.3513 19.5589 49.1215 19.3068C48.8925 19.0555 48.7448 18.7285 48.6635 18.3327Z" fill="#FFD772" stroke="#131313" stroke-width="0.3"/>
<circle cx="17" cy="17" r="12.5" fill="#FFD772" stroke="#131313"/>
<path d="M17 2H49V0H17V2ZM49 32H17V34H49V32ZM17 32C8.71573 32 2 25.2843 2 17H0C0 26.3888 7.61116 34 17 34V32ZM64 17C64 25.2843 57.2843 32 49 32V34C58.3888 34 66 26.3888 66 17H64ZM49 2C57.2843 2 64 8.71573 64 17H66C66 7.61116 58.3888 0 49 0V2ZM17 0C7.61116 0 0 7.61116 0 17H2C2 8.71573 8.71573 2 17 2V0Z" fill="#131313"/>
</svg>
