<svg width="66" height="34" viewBox="0 0 66 34" fill="none" xmlns="http://www.w3.org/2000/svg">
<mask id="path-3-outside-1_218_727" maskUnits="userSpaceOnUse" x="39.7334" y="4" width="23" height="26" fill="black">
<rect fill="white" x="39.7334" y="4" width="23" height="26"/>
<path fill-rule="evenodd" clip-rule="evenodd" d="M49.2299 29C55.7304 29 61 23.6274 61 17C61 10.3726 55.7304 5 49.2299 5C47.2451 5 45.375 5.5009 43.7346 6.38547C49.0222 6.92002 53.152 11.4681 53.152 16.9996C53.152 22.5315 49.0215 27.0799 43.7334 27.6139C45.3741 28.4988 47.2446 29 49.2299 29Z"/>
</mask>
<path fill-rule="evenodd" clip-rule="evenodd" d="M49.2299 29C55.7304 29 61 23.6274 61 17C61 10.3726 55.7304 5 49.2299 5C47.2451 5 45.375 5.5009 43.7346 6.38547C49.0222 6.92002 53.152 11.4681 53.152 16.9996C53.152 22.5315 49.0215 27.0799 43.7334 27.6139C45.3741 28.4988 47.2446 29 49.2299 29Z" fill="#FFD772"/>
<path d="M43.7346 6.38547L43.26 5.50529L40.3908 7.05251L43.6341 7.3804L43.7346 6.38547ZM43.7334 27.6139L43.6329 26.6189L40.3896 26.9464L43.2587 28.494L43.7334 27.6139ZM60 17C60 23.0935 55.1599 28 49.2299 28V30C56.3008 30 62 24.1614 62 17H60ZM49.2299 6C55.1599 6 60 10.9065 60 17H62C62 9.83862 56.3008 4 49.2299 4V6ZM44.2093 7.26565C45.708 6.45746 47.4155 6 49.2299 6V4C47.0747 4 45.042 4.54433 43.26 5.50529L44.2093 7.26565ZM43.6341 7.3804C48.4005 7.86227 52.152 11.971 52.152 16.9996H54.152C54.152 10.9653 49.6439 5.97778 43.8352 5.39054L43.6341 7.3804ZM52.152 16.9996C52.152 22.0286 48.3999 26.1376 43.6329 26.6189L43.8339 28.6088C49.6432 28.0222 54.152 23.0344 54.152 16.9996H52.152ZM49.2299 28C47.415 28 45.7071 27.5423 44.2081 26.7337L43.2587 28.494C45.041 29.4554 47.0741 30 49.2299 30V28Z" fill="#131313" mask="url(#path-3-outside-1_218_727)"/>
<path d="M33.007 17.6139L32.2378 15.2464C32.1629 15.016 31.8371 15.016 31.7622 15.2464L30.993 17.6139H28.5035C28.2614 17.6139 28.1607 17.9238 28.3566 18.0662L30.3706 19.5294L29.6013 21.897C29.5265 22.1273 29.7901 22.3189 29.986 22.1765L32 20.7133L34.014 22.1765C34.2099 22.3189 34.4735 22.1273 34.3987 21.897L33.6294 19.5294L35.6434 18.0662C35.8393 17.9238 35.7386 17.6139 35.4965 17.6139H33.007Z" fill="#FFD772" stroke="#131313" stroke-width="0.3"/>
<path d="M18.1703 5.57746L17.7378 4.24635C17.6629 4.01603 17.3371 4.01602 17.2622 4.24635L16.8297 5.57746H15.4301C15.1879 5.57746 15.0873 5.88736 15.2832 6.02971L16.4155 6.85238L15.983 8.18349C15.9081 8.41381 16.1718 8.60534 16.3677 8.46299L17.5 7.64033L18.6323 8.46299C18.8282 8.60534 19.0919 8.41381 19.017 8.18349L18.5845 6.85238L19.7168 6.02971C19.9127 5.88736 19.8121 5.57746 19.5699 5.57746H18.1703Z" fill="#FFD772" stroke="#131313" stroke-width="0.3"/>
<circle cx="28.5" cy="9.5" r="1.65" fill="#FFD772" stroke="#131313" stroke-width="0.3"/>
<circle cx="22" cy="15" r="1.15" fill="#FFD772" stroke="#131313" stroke-width="0.3"/>
<circle cx="7.5" cy="11.5" r="0.65" fill="#FFD772" stroke="#131313" stroke-width="0.3"/>
<path d="M17 2H49V0H17V2ZM49 32H17V34H49V32ZM17 32C8.71573 32 2 25.2843 2 17H0C0 26.3888 7.61116 34 17 34V32ZM64 17C64 25.2843 57.2843 32 49 32V34C58.3888 34 66 26.3888 66 17H64ZM49 2C57.2843 2 64 8.71573 64 17H66C66 7.61116 58.3888 0 49 0V2ZM17 0C7.61116 0 0 7.61116 0 17H2C2 8.71573 8.71573 2 17 2V0Z" fill="#131313"/>
</svg>
