<svg width="80" height="68" viewBox="0 0 80 68" fill="none" xmlns="http://www.w3.org/2000/svg">
<path d="M36.0598 63.3697C38.6002 65.8671 42.7145 65.8671 45.255 63.3697L52.1208 56.6205C54.6612 54.1231 54.6612 50.0786 52.1208 47.5813C49.5803 45.0839 45.466 45.0839 42.9255 47.5813L36.0598 54.3305C33.5193 56.8279 33.5193 60.8752 36.0598 63.3697Z" fill="#F8B613"/>
<path d="M40.6558 66.0828C42.6203 66.0828 44.4679 65.3317 45.8593 63.9639L52.7251 57.2146C54.1136 55.8496 54.8806 54.0334 54.8806 52.0994C54.8806 50.1654 54.1165 48.352 52.7251 46.9842C51.3365 45.6192 49.4889 44.8652 47.5216 44.8652C45.5542 44.8652 43.7095 45.6164 42.3181 46.9842L35.4523 53.7335C32.5839 56.5531 32.5839 61.1414 35.4523 63.9611C36.8437 65.3317 38.6913 66.0828 40.6558 66.0828ZM47.5216 46.5497C49.0299 46.5497 50.4469 47.1271 51.5133 48.1754C52.5797 49.2237 53.167 50.6167 53.167 52.0994C53.167 53.5821 52.5797 54.9751 51.5133 56.0234L44.6475 62.7727C43.5812 63.8209 42.1641 64.3983 40.6558 64.3983C39.1475 64.3983 37.7304 63.8209 36.6641 62.7727C34.4629 60.6089 34.4629 57.0857 36.6641 54.9219L43.5298 48.1726C44.5962 47.1271 46.0133 46.5497 47.5216 46.5497Z" fill="#2D2D2D"/>
<path d="M42.4237 47.8308L51.6189 56.87L55.1972 53.3524C57.7377 50.8551 57.7377 46.8105 55.1972 44.3132C52.6568 41.8158 48.5424 41.8158 46.002 44.3132L42.4237 47.8308Z" fill="white"/>
<path d="M51.6187 58.0611L55.8015 53.9465C57.19 52.5815 57.957 50.7653 57.957 48.8313C57.957 46.8974 57.1929 45.0839 55.8015 43.7161C54.4129 42.3511 52.5653 41.5972 50.598 41.5972C48.6335 41.5972 46.7859 42.3483 45.3945 43.7161L41.2117 47.8279L51.6187 58.0611ZM50.6008 43.2817C52.1091 43.2817 53.5262 43.8591 54.5926 44.9073C55.6589 45.9556 56.2463 47.3486 56.2463 48.8313C56.2463 50.314 55.6589 51.7071 54.5926 52.7553L51.6187 55.6787L43.6324 47.8279L46.6063 44.9045C47.6726 43.8591 49.0925 43.2817 50.6008 43.2817Z" fill="#2D2D2D"/>
<path d="M0.898129 15.2671V0.84082H3.0394C10.3699 0.84082 16.3119 6.68196 16.3119 13.8881V15.2671H29.6785V13.8881C29.6785 6.68196 35.6205 0.84082 42.9482 0.84082H45.0894V15.4689V21.1026H52.688V29.3094C52.688 31.6946 50.7206 33.6286 48.2942 33.6286H45.0894V55.0816C45.0894 61.7524 39.5894 67.1591 32.8035 67.1591H0.855362V15.2671H0.898129Z" fill="white"/>
<path d="M9.53674e-05 68H32.8036C40.0514 68 45.9449 62.2037 45.9449 55.0817V34.4695H48.2943C51.1883 34.4695 53.5435 32.1543 53.5435 29.3094V20.2618H45.9449V0H42.9483C35.1587 0 28.8204 6.23074 28.8204 13.8881V14.4263H17.1645V13.8881C17.1645 6.23074 10.8262 0 3.03666 0H0.0400047V14.4263H9.53674e-05V68ZM51.8327 21.9435V29.3094C51.8327 31.2266 50.2446 32.7878 48.2943 32.7878H44.2342V55.0817C44.2342 61.2788 39.1076 66.3183 32.8036 66.3183H1.71083V16.108H1.75075V1.68171H3.03666C9.88248 1.68171 15.4538 7.15848 15.4538 13.8881V16.108H30.5311V13.8881C30.534 7.15848 36.1024 1.68171 42.9483 1.68171H44.2342V21.9435H51.8327Z" fill="#2D2D2D"/>
<path d="M48.3199 25.7583H47.5015C46.0075 25.7583 44.7929 24.5671 44.7929 23.0956V20.2058H53.4321V20.7299C53.435 23.5076 51.1454 25.7583 48.3199 25.7583Z" fill="black"/>
<path d="M42.5204 37.0594L48.3427 38.6121C49.4604 38.912 50.6151 38.2618 50.9173 37.1603C51.2224 36.0615 50.5609 34.9264 49.4404 34.6293L43.6182 33.0765C42.5005 32.7766 41.3457 33.4269 41.0435 34.5284C40.7384 35.6271 41.3999 36.7595 42.5204 37.0594Z" fill="#D980BB"/>
<path d="M48.8931 39.5259C50.1932 39.5259 51.3879 38.6738 51.7443 37.3817C52.172 35.8374 51.2396 34.2369 49.6657 33.8165L43.8435 32.2637C42.2696 31.8461 40.6444 32.7598 40.2167 34.307C40.0115 35.0554 40.1112 35.8374 40.5047 36.5128C40.8982 37.1855 41.534 37.6676 42.2953 37.8722L48.1175 39.425C48.377 39.4923 48.6364 39.5259 48.8931 39.5259ZM43.0708 33.8445C43.1792 33.8445 43.2875 33.8585 43.3959 33.8866L49.2181 35.4394C49.5374 35.5234 49.8055 35.728 49.9708 36.0111C50.1362 36.2942 50.179 36.625 50.0934 36.9389C49.9138 37.5891 49.2295 37.9759 48.568 37.7994L42.7458 36.2466C42.4265 36.1625 42.1584 35.9579 41.9931 35.6748C41.8277 35.3917 41.7849 35.061 41.8733 34.747C42.0187 34.2033 42.5234 33.8445 43.0708 33.8445Z" fill="#2D2D2D"/>
<path d="M42.6344 1.66211H44.2368V16.0744H44.2311V28.5863H38.7482C35.3467 28.5863 32.5895 25.7638 32.5895 22.2827V16.0716H30.5452V14.0367C30.5452 7.20335 35.9568 1.66211 42.6344 1.66211ZM33.4477 15.724H41.7648V7.11926H40.2679C36.5014 7.11926 33.4477 10.2444 33.4477 14.1012V15.724Z" fill="#F9B61A"/>
<path d="M31.0727 19.3005V20.4217H33.4677V19.3005H42.6401V21.9128C42.6401 24.4017 40.5872 26.4226 38.0525 26.4226C35.5206 26.4226 33.4649 24.4045 33.4649 21.9128V21.6017H31.0698V21.9128C31.0698 24.4017 29.0169 26.4226 26.4822 26.4226C23.9474 26.4226 21.8945 24.4045 21.8945 21.9128V19.3005H31.0727Z" fill="#39332D"/>
<path d="M64.5548 31.9917C72.6123 31.9917 79.1445 38.413 79.1445 46.3339C79.1445 54.2548 72.6123 60.6761 64.5548 60.6761C56.4972 60.6761 49.965 54.2548 49.965 46.3339C49.965 38.413 56.5 31.9917 64.5548 31.9917ZM64.5548 51.5528C67.4858 51.5528 69.8638 49.2152 69.8638 46.3339C69.8638 43.4526 67.4858 41.115 64.5548 41.115C61.6237 41.115 59.2458 43.4526 59.2458 46.3339C59.2458 49.2152 61.6237 51.5528 64.5548 51.5528Z" fill="#D980BB"/>
<path d="M64.5549 61.5142C73.0715 61.5142 80 54.7032 80 46.3339C80 37.9646 73.0715 31.1509 64.5549 31.1509C56.0382 31.1509 49.1097 37.9618 49.1097 46.3339C49.1097 54.706 56.0411 61.5142 64.5549 61.5142ZM64.5549 32.8326C72.1277 32.8326 78.2893 38.8896 78.2893 46.3339C78.2893 53.7783 72.1277 59.8353 64.5549 59.8353C56.982 59.8353 50.8204 53.7783 50.8204 46.3339C50.8204 38.8896 56.9848 32.8326 64.5549 32.8326ZM64.5549 52.3937C67.9535 52.3937 70.7192 49.6749 70.7192 46.3339C70.7192 42.9929 67.9535 40.2742 64.5549 40.2742C61.1562 40.2742 58.3905 42.9929 58.3905 46.3339C58.3905 49.6749 61.1562 52.3937 64.5549 52.3937ZM64.5549 41.9559C67.0098 41.9559 69.0085 43.9207 69.0085 46.3339C69.0085 48.7472 67.0098 50.712 64.5549 50.712C62.0999 50.712 60.1012 48.7472 60.1012 46.3339C60.1012 43.9207 62.0999 41.9559 64.5549 41.9559Z" fill="#2D2D2D"/>
<path d="M69.0157 36.5883L71.5681 39.0974L70.3584 40.2866L67.8061 37.7775L69.0157 36.5883Z" fill="#FFF48F"/>
<path d="M60.1714 35.6352L61.3604 36.8445L58.7646 39.3106L57.5757 38.1013L60.1714 35.6352Z" fill="#E2298A"/>
<path d="M53.3937 40.6453L56.0576 43.0398L54.9032 44.2809L52.2393 41.8864L53.3937 40.6453Z" fill="#FFF48F"/>
<path d="M54.6315 48.1558L54.7925 51.7007L53.0834 51.7757L52.9225 48.2308L54.6315 48.1558Z" fill="#E2298A"/>
<path d="M57.797 53.0775L60.4609 55.4719L59.3065 56.713L56.6426 54.3186L57.797 53.0775Z" fill="#FFF48F"/>
<path d="M69.8908 54.4652L70.0518 58.01L68.3427 58.085L68.1817 54.5402L69.8908 54.4652Z" fill="#E2298A"/>
<path d="M73.3136 48.452L75.9775 50.8464L74.8231 52.0875L72.1592 49.6931L73.3136 48.452Z" fill="#FFF48F"/>
<path d="M73.748 43.2809L75.0105 44.4158L72.5747 47.0345L71.3122 45.8997L73.748 43.2809Z" fill="#E2298A"/>
<path d="M74.133 38.2916L76.6851 40.801L75.4752 41.99L72.9232 39.4806L74.133 38.2916Z" fill="white"/>
<path d="M63.155 34.0742H64.8657V37.6226H63.155V34.0742Z" fill="white"/>
<path d="M64.9987 53.8315L66.2612 54.9663L63.8254 57.585L62.5629 56.4502L64.9987 53.8315Z" fill="white"/>
</svg>
